# https://github.com/mikedh/trimesh
v 0.01057300 -0.03048200 0.19240900
v 0.00970300 -0.02484000 0.20911300
v 0.00970300 -0.02484000 0.22908200
v 0.00970300 -0.02484000 0.21107000
v 0.00970300 -0.02484000 0.21106800
v -0.00960700 -0.02484000 0.22929600
v -0.00960700 -0.02484000 0.21107000
v -0.00830600 -0.02484000 0.22995100
v 0.00818600 -0.02484000 0.22995100
v -0.00895800 -0.02484000 0.20911300
v -0.00960800 -0.02484000 0.21106800
v 0.01013800 -0.03590700 0.19240900
v 0.01013800 -0.03590700 0.20108800
v -0.01026000 -0.03590700 0.19240900
v -0.01004300 -0.03590700 0.20108800
v 0.00840200 -0.03070000 0.22995100
v 0.01057300 -0.03070000 0.21107000
v 0.01057300 -0.03070000 0.22777700
v 0.00927000 -0.03070000 0.22951400
v -0.00830600 -0.03070000 0.22995100
v -0.00939100 -0.03070000 0.22951400
v -0.01069400 -0.03070000 0.22712800
v -0.01069400 -0.03070000 0.21107000
v 0.01035500 -0.03070000 0.22843100
v -0.01004300 -0.03070000 0.22886200
v 0.01057300 -0.03395400 0.20520800
v 0.01013800 -0.03113300 0.21106800
v -0.01026000 -0.03113300 0.21106800
v -0.01069500 -0.03482200 0.20325500
v -0.01069400 -0.02592600 0.22734300
v -0.01069400 -0.02592600 0.21107000
v 0.01013800 -0.03569000 0.20217000
v -0.01004300 -0.03569000 0.20217000
v 0.01057300 -0.03091600 0.21085000
v 0.01057300 -0.02570900 0.21107000
v 0.01057300 -0.02570900 0.22777700
v -0.01047600 -0.02570900 0.22821100
v 0.01057300 -0.03547300 0.19240900
v 0.01057300 -0.03547300 0.20152300
v -0.01069500 -0.03547300 0.19240900
v -0.01069500 -0.03547300 0.20087100
v -0.00982400 -0.02505900 0.20868000
v 0.00883500 -0.02874800 0.19240900
v -0.00874000 -0.02874800 0.19240900
v 0.00840200 -0.03113400 0.22951400
v 0.01013800 -0.03113400 0.22777900
v 0.01013800 -0.03113400 0.21107000
v -0.00830600 -0.03113400 0.22951400
v -0.01025900 -0.03113400 0.22734300
v -0.01025900 -0.03113400 0.21107000
v -0.01069500 -0.02592700 0.20889800
v -0.01069500 -0.02592700 0.21106800
v -0.01069500 -0.03069900 0.19240900
v -0.01069500 -0.03069900 0.21106800
v 0.01013800 -0.03438800 0.20520800
v -0.01004300 -0.03438800 0.20520800
v 0.01013800 -0.03525600 0.20347200
v -0.01026000 -0.03525600 0.20347200
v 0.01057300 -0.02571000 0.20933100
v 0.01057300 -0.02571000 0.21106800
vn 0.70783261 0.24116185 -0.66393821
vn 0.38326373 0.91622501 -0.11679319
vn 0.55425679 0.67437035 0.48787707
vn 0.29688769 0.71733332 -0.63030993
vn 0.29710873 0.71728347 0.63026251
vn -0.53158132 0.67435070 0.51251579
vn -0.29693190 0.71732345 -0.63030034
vn -0.16951853 0.66132905 0.73068964
vn 0.18727187 0.65841616 0.72898382
vn -0.08131787 0.98982433 -0.11676985
vn -0.29813692 0.72092349 0.62560666
vn 0.29666661 -0.71738287 -0.63035762
vn 0.36020970 -0.92971869 0.07662978
vn -0.29673431 -0.71753449 -0.63015316
vn -0.29344681 -0.95043608 0.10276292
vn 0.21126001 -0.35675503 0.90999728
vn 0.71718372 -0.29755038 -0.63016766
vn 0.91867166 -0.36743751 0.14502435
vn 0.54874523 -0.41887737 0.72347801
vn -0.17184496 -0.36532230 0.91488192
vn -0.51400924 -0.45766193 0.72549298
vn -0.92209379 -0.35958378 0.14297746
vn -0.71718378 -0.29755079 -0.63016741
vn 0.76143029 -0.41443154 0.49846806
vn -0.71965016 -0.47869616 0.50294496
vn 0.91014668 -0.36825298 0.18979663
vn 0.26888811 -0.50635121 0.81933365
vn -0.26482071 -0.54933340 0.79252937
vn -0.92509663 -0.35387421 0.13772895
vn -0.93486107 0.34577016 0.08048468
vn -0.71724365 0.29728519 -0.63022461
vn 0.35437431 -0.90064802 0.25149949
vn -0.29268497 -0.92921076 0.22561665
vn 0.82166968 -0.27199009 0.50087956
vn 0.71723363 0.29732947 -0.63021513
vn 0.92489154 0.32288861 0.20079486
vn -0.89049945 0.34236058 0.29966641
vn 0.71718372 -0.29755038 -0.63016766
vn 0.89565990 -0.43749562 0.07994325
vn -0.71718353 -0.29755069 -0.63016773
vn -0.87506755 -0.48160666 0.04808135
vn -0.46554259 0.87306423 -0.14501363
vn 0.27406087 0.64319794 -0.71497346
vn -0.27259144 0.64277007 -0.71591937
vn 0.13954549 -0.90061091 0.41161518
vn 0.40161143 -0.90717316 0.12547955
vn 0.29666679 -0.71738320 -0.63035717
vn -0.11793857 -0.90657268 0.40523631
vn -0.43654091 -0.89089307 0.12546539
vn -0.29666650 -0.71738313 -0.63035738
vn -0.91386951 0.40236847 -0.05424145
vn -0.71728360 0.29710867 0.63026239
vn -0.70765993 0.23976246 -0.66462876
vn -0.70307309 -0.19822864 0.68293018
vn 0.35181925 -0.82970182 0.43337987
vn -0.13878994 -0.87350179 0.46661759
vn 0.41291167 -0.84172457 0.34785587
vn -0.40782997 -0.84682085 0.34142228
vn 0.91441286 0.40136789 -0.05246849
vn 0.71746842 0.29629847 0.63043341
f 45//45 24//24 19//19
f 23//23 4//4 47//47
f 4//4 6//6 3//3
f 4//4 23//23 7//7
f 6//6 4//4 7//7
f 47//47 45//45 48//48
f 23//23 22//22 31//31
f 7//7 23//23 31//31
f 6//6 7//7 31//31
f 22//22 23//23 50//50
f 23//23 47//47 50//50
f 47//47 48//48 50//50
f 3//3 6//6 9//9
f 47//47 4//4 35//35
f 4//4 3//3 35//35
f 48//48 45//45 20//20
f 31//31 22//22 30//30
f 6//6 31//31 30//30
f 35//35 3//3 36//36
f 18//18 35//35 36//36
f 9//9 6//6 8//8
f 20//20 9//9 8//8
f 20//20 45//45 16//16
f 9//9 20//20 16//16
f 18//18 47//47 17//17
f 47//47 35//35 17//17
f 35//35 18//18 17//17
f 22//22 50//50 49//49
f 50//50 48//48 49//49
f 25//25 22//22 49//49
f 48//48 25//25 49//49
f 45//45 47//47 46//46
f 47//47 18//18 46//46
f 36//36 3//3 24//24
f 18//18 36//36 24//24
f 45//45 46//46 24//24
f 46//46 18//18 24//24
f 30//30 22//22 37//37
f 6//6 30//30 37//37
f 22//22 25//25 37//37
f 25//25 6//6 37//37
f 48//48 20//20 21//21
f 8//8 6//6 21//21
f 20//20 8//8 21//21
f 25//25 48//48 21//21
f 6//6 25//25 21//21
f 3//3 9//9 19//19
f 16//16 45//45 19//19
f 9//9 16//16 19//19
f 24//24 3//3 19//19
f 58//58 41//41 33//33
f 53//53 40//40 52//52
f 40//40 53//53 43//43
f 5//5 52//52 28//28
f 40//40 43//43 38//38
f 5//5 28//28 27//27
f 43//43 53//53 44//44
f 10//10 43//43 44//44
f 26//26 38//38 1//1
f 38//38 43//43 1//1
f 40//40 38//38 12//12
f 43//43 10//10 2//2
f 10//10 5//5 2//2
f 1//1 43//43 2//2
f 5//5 27//27 60//60
f 26//26 1//1 60//60
f 2//2 5//5 60//60
f 40//40 12//12 14//14
f 12//12 15//15 14//14
f 27//27 28//28 55//55
f 52//52 40//40 29//29
f 52//52 5//5 11//11
f 5//5 10//10 11//11
f 44//44 53//53 42//42
f 10//10 44//44 42//42
f 11//11 10//10 42//42
f 32//32 15//15 13//13
f 12//12 38//38 13//13
f 15//15 12//12 13//13
f 28//28 52//52 54//54
f 58//58 28//28 54//54
f 52//52 29//29 54//54
f 29//29 58//58 54//54
f 26//26 60//60 34//34
f 60//60 27//27 34//34
f 55//55 26//26 34//34
f 27//27 55//55 34//34
f 28//28 58//58 56//56
f 55//55 28//28 56//56
f 58//58 55//55 56//56
f 53//53 52//52 51//51
f 52//52 11//11 51//51
f 42//42 53//53 51//51
f 11//11 42//42 51//51
f 58//58 32//32 57//57
f 26//26 55//55 57//57
f 55//55 58//58 57//57
f 1//1 2//2 59//59
f 60//60 1//1 59//59
f 2//2 60//60 59//59
f 38//38 26//26 39//39
f 13//13 38//38 39//39
f 32//32 13//13 39//39
f 26//26 57//57 39//39
f 57//57 32//32 39//39
f 40//40 14//14 41//41
f 14//14 15//15 41//41
f 29//29 40//40 41//41
f 58//58 29//29 41//41
f 15//15 32//32 33//33
f 32//32 58//58 33//33
f 41//41 15//15 33//33