####
#
# OBJ File Generated by Meshlab
#
####
# Object Plantain_align.obj
#
# Vertices: 96
# Faces: 94
#
####
mtllib ./Plantain_align.obj.mtl

vn 0.675722 -1.067237 2.388454
v -0.029284 0.092878 0.025425 0.752941 0.752941 0.752941
vn 0.692701 -1.099593 2.454505
v -0.073740 0.064141 0.025128 0.752941 0.752941 0.752941
vn 0.449848 -0.712235 2.099074
v -0.065419 0.033997 0.010985 0.752941 0.752941 0.752941
vn 0.462440 -0.728104 2.155123
v -0.004643 0.072591 0.011024 0.752941 0.752941 0.752941
vn 0.237064 -0.392861 3.260909
v -0.011117 0.025244 0.001491 0.752941 0.752941 0.752941
vn 0.454431 -0.712471 3.916359
v -0.014302 0.034663 0.003263 0.752941 0.752941 0.752941
vn 0.501196 -0.804311 4.159207
v -0.022166 0.030911 0.003484 0.752941 0.752941 0.752941
vn 0.210111 -0.362081 3.369377
v -0.014510 0.022106 0.001362 0.752941 0.752941 0.752941
vn 0.398152 -0.622802 2.457176
v -0.004262 0.051153 0.005272 0.752941 0.752941 0.752941
vn 0.380301 -0.600847 2.367807
v -0.042919 0.025042 0.004918 0.752941 0.752941 0.752941
vn 0.058585 -0.092561 1.456614
v -0.001836 -0.003872 -0.000799 0.752941 0.752941 0.752941
vn 0.064375 -0.105872 1.645085
v 0.002714 -0.000993 -0.000799 0.752941 0.752941 0.752941
vn 0.860859 -1.359056 2.379065
v -0.051482 0.097243 0.035642 0.752941 0.752941 0.752941
vn 0.617351 -0.971469 1.517612
v -0.064825 0.096115 0.040348 0.752941 0.752941 0.752941
vn 0.845021 -1.344851 2.370549
v -0.070798 0.083893 0.034953 0.752941 0.752941 0.752941
vn -1.535162 0.361211 2.194052
v 0.050550 -0.045613 0.024790 0.752941 0.752941 0.752941
vn -1.577864 0.374463 2.254877
v 0.064856 -0.009720 0.028865 0.752941 0.752941 0.752941
vn -1.106888 0.215481 1.960823
v 0.048990 0.005511 0.016582 0.752941 0.752941 0.752941
vn -1.135128 0.218358 2.013227
v 0.029184 -0.043127 0.010722 0.752941 0.752941 0.752941
vn -0.949882 0.016253 3.153131
v 0.014355 -0.011541 0.002870 0.752941 0.752941 0.752941
vn -1.411203 0.119029 3.747872
v 0.019962 -0.015951 0.004886 0.752941 0.752941 0.752941
vn -1.540334 0.154560 3.975044
v 0.023017 -0.010413 0.005854 0.752941 0.752941 0.752941
vn -0.929116 0.000863 3.265823
v 0.015065 -0.008228 0.003068 0.752941 0.752941 0.752941
vn -1.074389 0.153531 2.325159
v 0.020679 -0.030153 0.005739 0.752941 0.752941 0.752941
vn -1.033018 0.150404 2.241087
v 0.032662 0.001737 0.009170 0.752941 0.752941 0.752941
vn -0.340041 -0.033310 1.420209
v -0.003022 0.002203 -0.001017 0.752941 0.752941 0.752941
vn -0.383365 -0.035532 1.604187
v -0.004508 -0.001432 -0.001458 0.752941 0.752941 0.752941
vn -1.846452 0.494226 2.143491
v 0.064317 -0.039372 0.034962 0.752941 0.752941 0.752941
vn -1.291566 0.361711 1.352419
v 0.071193 -0.033306 0.039907 0.752941 0.752941 0.752941
vn -1.824374 0.492050 2.138204
v 0.070236 -0.023235 0.036299 0.752941 0.752941 0.752941
vn -2.169748 -1.735189 1.927696
v 0.033310 0.008852 0.031065 0.752941 0.752941 0.752941
vn -3.239492 -4.178577 2.855334
v 0.028073 0.014119 0.030037 0.752941 0.752941 0.752941
vn -2.123892 -4.037475 3.526442
v 0.013128 0.011046 0.013428 0.752941 0.752941 0.752941
vn -1.740484 -1.179982 1.870017
v 0.024311 -0.001874 0.015684 0.752941 0.752941 0.752941
vn -0.203001 -0.830037 1.318684
v -0.005086 -0.000064 -0.000895 0.752941 0.752941 0.752941
vn -0.462891 -1.580895 2.651304
v -0.003665 -0.001120 -0.001332 0.752941 0.752941 0.752941
vn -1.277800 -3.260412 5.180033
v 0.001601 0.002450 0.001716 0.752941 0.752941 0.752941
vn -0.542952 -2.673764 3.048836
v -0.000328 0.004765 0.002927 0.752941 0.752941 0.752941
vn -1.305510 -1.793385 3.102897
v 0.003538 0.000026 0.000869 0.752941 0.752941 0.752941
vn -1.241906 -0.986918 1.643996
v 0.015028 -0.005640 0.004866 0.752941 0.752941 0.752941
vn -1.688018 -3.817873 4.350199
v 0.004347 0.005616 0.004694 0.752941 0.752941 0.752941
vn -0.249721 -1.868966 1.070302
v -0.006342 0.014205 0.014324 0.752941 0.752941 0.752941
vn -0.278427 -2.189394 0.955675
v 0.002337 0.018870 0.028209 0.752941 0.752941 0.752941
vn -0.113577 -0.493058 -0.066153
v 0.041447 0.010598 0.047304 0.752941 0.752941 0.752941
vn -1.427272 -2.938689 0.552930
v 0.034114 0.013574 0.041397 0.752941 0.752941 0.752941
vn -1.687672 -6.008413 -0.079200
v 0.037330 0.012243 0.042108 0.752941 0.752941 0.752941
vn -1.048337 -2.601880 1.171267
v 0.021886 0.019431 0.034440 0.752941 0.752941 0.752941
vn -0.352764 -0.952237 1.714271
v -0.002249 -0.002200 -0.001659 0.752941 0.752941 0.752941
vn -0.571992 -2.935519 -0.324159
v 0.039724 0.011849 0.042784 0.752941 0.752941 0.752941
vn 0.519283 -1.642112 2.150773
v -0.033207 0.048427 0.031451 0.752941 0.752941 0.752941
vn 2.296884 -2.984508 4.789299
v -0.046640 0.032351 0.022836 0.752941 0.752941 0.752941
vn 1.461981 -2.457033 5.348405
v -0.028895 0.018339 0.008976 0.752941 0.752941 0.752941
vn 0.255948 -1.488529 2.077985
v -0.011235 0.038406 0.021175 0.752941 0.752941 0.752941
vn 0.238334 -0.188764 1.527285
v -0.003604 -0.002426 0.000001 0.752941 0.752941 0.752941
vn 0.488229 -0.401852 3.044933
v -0.002399 -0.000601 -0.000065 0.752941 0.752941 0.752941
vn 0.223004 -1.830367 5.993727
v -0.010836 0.007381 0.002342 0.752941 0.752941 0.752941
vn 0.474792 -1.029170 4.124622
v -0.013868 0.004635 0.001716 0.752941 0.752941 0.752941
vn 0.106537 -1.574807 3.661786
v -0.007859 0.010080 0.003228 0.752941 0.752941 0.752941
vn 0.173081 -1.304792 2.067234
v -0.003585 0.025103 0.011039 0.752941 0.752941 0.752941
vn 0.820474 -2.130396 5.743363
v -0.016352 0.009931 0.003490 0.752941 0.752941 0.752941
vn 0.822167 -0.550176 2.162734
v -0.030821 -0.006693 0.003267 0.752941 0.752941 0.752941
vn 0.970198 -0.554078 2.080546
v -0.049893 -0.004493 0.012688 0.752941 0.752941 0.752941
vn 1.156638 -0.921952 1.227775
v -0.060834 0.042705 0.041952 0.752941 0.752941 0.752941
vn 1.720198 -1.355312 2.001666
v -0.062741 0.030026 0.034723 0.752941 0.752941 0.752941
vn 3.643892 -2.930981 4.180696
v -0.056928 0.039396 0.035788 0.752941 0.752941 0.752941
vn 1.276728 -0.946488 2.196361
v -0.062525 0.014661 0.023736 0.752941 0.752941 0.752941
vn 0.181248 -0.392891 1.880676
v -0.001213 0.001207 0.000124 0.752941 0.752941 0.752941
vn 1.219361 -1.501093 1.940597
v -0.051594 0.048301 0.037806 0.752941 0.752941 0.752941
vn -0.259556 -0.164336 2.689498
v 0.084186 0.025661 0.005470 0.752941 0.752941 0.752941
vn -0.267437 -0.168506 2.764647
v 0.055385 0.070076 0.005397 0.752941 0.752941 0.752941
vn -0.170808 -0.107888 2.258575
v 0.022674 0.060131 0.001983 0.752941 0.752941 0.752941
vn -0.174596 -0.110882 2.317942
v 0.061274 -0.000642 0.001993 0.752941 0.752941 0.752941
vn -0.101928 -0.064535 3.310231
v 0.012901 0.005182 -0.000263 0.752941 0.752941 0.752941
vn -0.167787 -0.107013 4.002567
v 0.022449 0.008449 0.000154 0.752941 0.752941 0.752941
vn -0.189577 -0.118148 4.261552
v 0.018715 0.016325 0.000206 0.752941 0.752941 0.752941
vn -0.098631 -0.061854 3.417072
v 0.009754 0.008571 -0.000293 0.752941 0.752941 0.752941
vn -0.147621 -0.094360 2.560861
v 0.039125 -0.001472 0.000628 0.752941 0.752941 0.752941
vn -0.142381 -0.090119 2.466947
v 0.012978 0.037162 0.000544 0.752941 0.752941 0.752941
vn -0.032850 -0.020793 1.441602
v -0.002630 0.002807 -0.000658 0.752941 0.752941 0.752941
vn -0.037617 -0.023204 1.633688
v 0.000249 -0.001742 -0.000658 0.752941 0.752941 0.752941
vn -0.336255 -0.212983 2.845164
v 0.090993 0.049405 0.007991 0.752941 0.752941 0.752941
vn -0.242927 -0.154335 1.882792
v 0.091131 0.063549 0.009169 0.752941 0.752941 0.752941
vn -0.332458 -0.208978 2.827494
v 0.077465 0.068608 0.007820 0.752941 0.752941 0.752941
vn 0.408175 0.211032 2.667330
v -0.073615 -0.013368 0.008589 0.752941 0.752941 0.752941
vn 0.420461 0.216214 2.741808
v -0.048800 -0.060127 0.008481 0.752941 0.752941 0.752941
vn 0.268847 0.138630 2.246905
v -0.015544 -0.053173 0.003371 0.752941 0.752941 0.752941
vn 0.274889 0.142603 2.306030
v -0.048700 0.010733 0.003385 0.752941 0.752941 0.752941
vn 0.110997 0.060912 1.985409
v -0.001097 0.000675 0.000005 0.752941 0.752941 0.752941
vn 0.264571 0.137899 3.996315
v -0.010884 -0.001743 0.000630 0.752941 0.752941 0.752941
vn 0.298558 0.151673 4.254128
v -0.007849 -0.009913 0.000708 0.752941 0.752941 0.752941
vn 0.085310 0.047242 1.532364
v 0.001742 -0.002976 -0.000040 0.752941 0.752941 0.752941
vn 0.232693 0.121583 2.553321
v -0.026617 0.009602 0.001340 0.752941 0.752941 0.752941
vn 0.224320 0.115936 2.459736
v -0.003940 -0.031165 0.001215 0.752941 0.752941 0.752941
vn 0.528158 0.273188 2.810589
v -0.082275 -0.036330 0.012357 0.752941 0.752941 0.752941
vn 0.381344 0.197914 1.855577
v -0.083547 -0.050357 0.014114 0.752941 0.752941 0.752941
vn 0.522017 0.267730 2.793610
v -0.070486 -0.056646 0.012101 0.752941 0.752941 0.752941
# 96 vertices, 0 vertices normals


usemtl material_0
vt 0.853846 0.797328
vt 0.267014 0.793219
vt 0.166228 0.561019
f 1/1/1 2/2/2 3/3/3
vt 0.964394 0.561818
f 1/1/1 3/3/3 4/4/4
vt 0.623023 0.296740
vt 0.649032 0.365578
vt 0.553115 0.372999
f 5/5/5 6/6/6 7/7/7
vt 0.572621 0.290804
f 5/5/5 7/7/7 8/8/8
vt 0.840850 0.427224
vt 0.323909 0.417178
f 6/6/6 9/9/9 10/10/10
f 6/6/6 10/10/10 7/7/7
vt 0.537322 0.088735
vt 0.597013 0.088735
f 8/8/8 11/11/11 12/12/12
f 8/8/8 12/12/12 5/5/5
f 4/4/4 3/3/3 10/10/10
f 4/4/4 10/10/10 9/9/9
vt 0.671782 0.927812
vt 0.540110 0.982266
vt 0.411690 0.919593
f 13/13/13 14/14/14 15/15/15
f 13/13/13 15/15/15 2/2/2
f 13/13/13 2/2/2 1/1/1
f 16/1/16 17/2/17 18/3/18
f 16/1/16 18/3/18 19/4/19
f 20/5/20 21/6/21 22/7/22
f 20/5/20 22/7/22 23/8/23
f 21/6/21 24/9/24 25/10/25
f 21/6/21 25/10/25 22/7/22
f 23/8/23 26/11/26 27/12/27
f 23/8/23 27/12/27 20/5/20
f 19/4/19 18/3/18 25/10/25
f 19/4/19 25/10/25 24/9/24
f 28/13/28 29/14/29 30/15/30
f 28/13/28 30/15/30 17/2/17
f 28/13/28 17/2/17 16/1/16
vt 0.560430 0.795273
vt 0.565311 0.561418
f 31/1/31 32/16/32 33/17/33
f 31/1/31 33/17/33 34/4/34
vt 0.597822 0.293772
vt 0.601073 0.369289
f 35/8/35 36/18/36 37/19/37
f 35/8/35 37/19/37 38/7/38
vt 0.582379 0.422201
f 39/6/39 40/9/40 41/20/41
f 39/6/39 41/20/41 37/19/37
f 42/10/42 41/20/41 33/17/33
f 42/10/42 33/17/33 43/3/43
vt 0.541736 0.923702
f 44/14/44 45/15/45 46/21/46
f 45/15/45 47/2/47 32/16/32
f 45/15/45 32/16/32 46/21/46
f 47/2/47 43/3/43 33/17/33
f 47/2/47 33/17/33 32/16/32
f 48/5/48 39/6/39 37/19/37
f 48/5/48 37/19/37 36/18/36
f 41/20/41 42/10/42 38/7/38
f 41/20/41 38/7/38 37/19/37
f 40/9/40 34/4/34 33/17/33
f 40/9/40 33/17/33 41/20/41
f 32/16/32 31/1/31 49/13/49
f 32/16/32 49/13/49 46/21/46
f 46/21/46 49/13/49 44/14/44
f 50/1/50 51/16/51 52/17/52
f 50/1/50 52/17/52 53/4/53
f 54/8/54 55/18/55 56/19/56
f 54/8/54 56/19/56 57/7/57
f 58/6/58 59/9/59 60/20/60
f 58/6/58 60/20/60 56/19/56
f 61/10/61 60/20/60 52/17/52
f 61/10/61 52/17/52 62/3/62
f 63/14/63 64/15/64 65/21/65
f 64/15/64 66/2/66 51/16/51
f 64/15/64 51/16/51 65/21/65
f 66/2/66 62/3/62 52/17/52
f 66/2/66 52/17/52 51/16/51
f 67/5/67 58/6/58 56/19/56
f 67/5/67 56/19/56 55/18/55
f 60/20/60 61/10/61 57/7/57
f 60/20/60 57/7/57 56/19/56
f 59/9/59 53/4/53 52/17/52
f 59/9/59 52/17/52 60/20/60
f 51/16/51 50/1/50 68/13/68
f 51/16/51 68/13/68 65/21/65
f 65/21/65 68/13/68 63/14/63
f 69/1/69 70/2/70 71/3/71
f 69/1/69 71/3/71 72/4/72
f 73/5/73 74/6/74 75/7/75
f 73/5/73 75/7/75 76/8/76
f 74/6/74 77/9/77 78/10/78
f 74/6/74 78/10/78 75/7/75
f 76/8/76 79/11/79 80/12/80
f 76/8/76 80/12/80 73/5/73
f 72/4/72 71/3/71 78/10/78
f 72/4/72 78/10/78 77/9/77
f 81/13/81 82/14/82 83/15/83
f 81/13/81 83/15/83 70/2/70
f 81/13/81 70/2/70 69/1/69
f 84/1/84 85/2/85 86/3/86
f 84/1/84 86/3/86 87/4/87
f 88/5/88 89/6/89 90/7/90
f 88/5/88 90/7/90 91/8/91
f 89/6/89 92/9/92 93/10/93
f 89/6/89 93/10/93 90/7/90
f 87/4/87 86/3/86 93/10/93
f 87/4/87 93/10/93 92/9/92
f 94/13/94 95/14/95 96/15/96
f 94/13/94 96/15/96 85/2/85
f 94/13/94 85/2/85 84/1/84
# 94 faces, 21 coords texture

# End of File